<svg width="93" height="93" viewBox="0 0 93 93" fill="none" xmlns="http://www.w3.org/2000/svg">
<path d="M93.0001 32.1506C93.0005 33.3115 92.6782 34.4497 92.0692 35.4381C91.4601 36.4264 90.5883 37.226 89.5511 37.7475C88.5139 38.2689 87.3521 38.4918 86.1955 38.3912C85.039 38.2905 83.9332 37.8703 83.0016 37.1775C82.9845 37.1664 82.9681 37.1541 82.9528 37.1406C81.0893 35.7564 78.8303 35.0079 76.509 35.0053C74.1877 35.0028 71.9271 35.7464 70.0606 37.1265C70.0367 37.146 70.0107 37.1655 69.9857 37.1829C69.0609 37.8676 67.9652 38.2842 66.8191 38.387C65.673 38.4897 64.5207 38.2747 63.4888 37.7654C62.4569 37.2561 61.5853 36.4724 60.9697 35.5002C60.3541 34.528 60.0183 33.4049 59.9992 32.2544C59.98 31.1038 60.2783 29.9702 60.8613 28.9781C61.4443 27.986 62.2894 27.1737 63.3038 26.6304C64.3182 26.0872 65.4627 25.8339 66.6116 25.8986C67.7605 25.9632 68.8694 26.3431 69.8165 26.9967V26.9967C69.9423 27.0966 70.0714 27.1935 70.2038 27.2875C70.2038 27.2875 70.2038 27.2875 70.2125 27.294C72.0479 28.6021 74.2458 29.3045 76.4996 29.3034C78.7534 29.3022 80.9506 28.5975 82.7846 27.2875C82.9163 27.1928 83.0454 27.0958 83.172 26.9967C84.1119 26.3482 85.2113 25.969 86.3512 25.9002C87.491 25.8313 88.628 26.0755 89.6392 26.6062C90.6503 27.1369 91.4971 27.934 92.088 28.9112C92.6788 29.8884 92.9912 31.0086 92.9914 32.1506H93.0001Z" fill="black"/>
<path d="M65.6616 1.36952C66.5689 2.09281 67.2573 3.05397 67.6502 4.14576C68.043 5.23755 68.1248 6.41702 67.8863 7.55257C67.6479 8.68811 67.0986 9.73507 66.2998 10.5766C65.5009 11.4182 64.484 12.0212 63.3624 12.3185C63.3428 12.3242 63.3228 12.3289 63.3027 12.3326C61.0585 12.9263 59.0647 14.2257 57.6154 16.0391C56.1662 17.8526 55.3383 20.0839 55.254 22.4037C55.254 22.4341 55.254 22.4666 55.254 22.497C55.2123 23.6467 54.8547 24.7626 54.2204 25.7223C53.5861 26.682 52.6997 27.4485 51.6585 27.9375C50.6172 28.4266 49.4614 28.6193 48.3178 28.4946C47.1742 28.3699 46.087 27.9326 45.1756 27.2306C44.2642 26.5286 43.5639 25.5892 43.1513 24.5153C42.7388 23.4414 42.6301 22.2747 42.8371 21.1431C43.0441 20.0115 43.5588 18.9588 44.3248 18.1005C45.0908 17.2422 46.0785 16.6115 47.1793 16.2777V16.2777C47.3356 16.2419 47.4929 16.2007 47.6481 16.1573C47.6516 16.1563 47.6554 16.1563 47.6589 16.1573C49.826 15.5379 51.7457 14.2575 53.1501 12.4946C54.5545 10.7318 55.3734 8.57443 55.4927 6.32372C55.5003 6.16205 55.5058 5.99822 55.5058 5.8398C55.5828 4.69913 55.9706 3.60132 56.6272 2.66541C57.2839 1.7295 58.1842 0.99122 59.2306 0.530632C60.2769 0.0700433 61.4295 -0.0952745 62.5631 0.052606C63.6968 0.200487 64.7683 0.655921 65.6616 1.36952V1.36952Z" fill="black"/>
<path d="M24.546 3.54771C25.6773 3.28942 26.8582 3.35058 27.9567 3.72436C29.0553 4.09814 30.0284 4.76984 30.7674 5.66449C31.5064 6.55914 31.9823 7.64155 32.1419 8.79093C32.3015 9.94031 32.1386 11.1114 31.6714 12.1736C31.6638 12.1921 31.6551 12.2116 31.6464 12.229C30.7116 14.3537 30.4844 16.7226 30.9984 18.9863C31.5124 21.2499 32.7403 23.2884 34.5011 24.8011C34.5261 24.8206 34.5499 24.8412 34.5727 24.8618C35.4462 25.6111 36.0963 26.5865 36.4517 27.6811C36.8071 28.7756 36.8539 29.9469 36.5871 31.0664C36.3203 32.1858 35.7502 33.2101 34.9393 34.0267C34.1285 34.8433 33.1082 35.4206 31.9907 35.6953C30.8732 35.97 29.7016 35.9314 28.6045 35.5838C27.5075 35.2361 26.5275 34.5929 25.7721 33.7247C25.0168 32.8565 24.5153 31.797 24.3227 30.6624C24.1301 29.5279 24.254 28.3622 24.6806 27.2934C24.6806 27.2934 24.6806 27.2934 24.6806 27.2934C24.7529 27.1487 24.8191 27.0011 24.8791 26.8507C24.8781 26.8475 24.8781 26.8441 24.8791 26.8409C25.7473 24.7598 25.9436 22.4594 25.4408 20.2613C24.9379 18.0631 23.761 16.0769 22.0744 14.5802C21.9528 14.4717 21.8302 14.3686 21.7044 14.2666C20.863 13.4946 20.2487 12.5072 19.9279 11.4112C19.6072 10.3152 19.5922 9.15241 19.8846 8.04853C20.1769 6.94466 20.7656 5.94174 21.5868 5.14825C22.408 4.35477 23.4306 3.80092 24.5439 3.54662L24.546 3.54771Z" fill="black"/>
<path d="M0.619378 37.0507C1.12285 36.0052 1.90694 35.1202 2.88415 34.4944C3.86135 33.8686 4.99323 33.5267 6.15346 33.5068C7.3137 33.4869 8.45664 33.7897 9.45475 34.3816C10.4529 34.9735 11.2669 35.8311 11.8059 36.8587C11.8157 36.876 11.8255 36.8945 11.8341 36.9129C12.9121 38.9689 14.6227 40.6238 16.7132 41.6333C18.8037 42.6428 21.1633 42.9534 23.4439 42.5192L23.5361 42.5008C24.6664 42.2852 25.8343 42.3853 26.9115 42.79C27.9887 43.1948 28.9335 43.8885 29.6422 44.7951C30.3509 45.7016 30.7961 46.786 30.9289 47.929C31.0617 49.072 30.8769 50.2295 30.3949 51.2744C29.9129 52.3193 29.1523 53.2112 28.1966 53.8521C27.2409 54.493 26.1271 54.8582 24.9774 54.9075C23.8278 54.9568 22.6867 54.6883 21.6797 54.1316C20.6726 53.5749 19.8384 52.7514 19.2687 51.7517C19.1964 51.607 19.1222 51.4623 19.0463 51.3176C19.0459 51.3144 19.0459 51.3111 19.0463 51.3079C17.9599 49.3315 16.2832 47.744 14.2506 46.767C12.2179 45.7901 9.93081 45.4726 7.7089 45.8589C7.54976 45.8871 7.39135 45.9186 7.23366 45.9533C6.10533 46.1304 4.95006 45.9955 3.89286 45.5633C2.83565 45.1311 1.91676 44.418 1.23562 43.5012C0.554471 42.5844 0.137005 41.4988 0.0283873 40.3619C-0.0802301 39.2249 0.124138 38.0799 0.619378 37.0507V37.0507Z" fill="black"/>
<path d="M11.8926 76.6532C11.3891 75.6077 11.186 74.4429 11.3061 73.2887C11.4261 72.1345 11.8645 71.0363 12.5723 70.1168C13.2802 69.1973 14.2296 68.4925 15.3147 68.0812C16.3998 67.6699 17.5778 67.5682 18.7174 67.7875L18.777 67.7995C21.0563 68.2382 23.4162 67.9326 25.5086 66.9279C27.601 65.9231 29.3149 64.2724 30.3976 62.2192C30.4117 62.191 30.4258 62.1628 30.441 62.1357C30.9771 61.1174 31.7834 60.2666 32.7714 59.6766C33.7594 59.0866 34.8909 58.7803 36.0416 58.7913C37.1923 58.8023 38.3177 59.1302 39.2943 59.739C40.2708 60.3478 41.0607 61.2139 41.5772 62.2422C42.0937 63.2706 42.3168 64.4214 42.2221 65.5682C42.1273 66.7151 41.7184 67.8136 41.0401 68.7433C40.3619 69.6729 39.4406 70.3976 38.3774 70.8379C37.3141 71.2782 36.1502 71.417 35.0133 71.239C35.0133 71.239 35.0133 71.239 35.0133 71.239C34.8559 71.2043 34.6975 71.1728 34.5369 71.1446C34.5369 71.1446 34.5304 71.1446 34.5261 71.1446C32.3045 70.7617 30.0189 71.0821 27.9881 72.0609C25.9574 73.0397 24.283 74.6281 23.1985 76.6044C23.1214 76.7465 23.0477 76.8908 22.9761 77.0384C22.4108 78.0307 21.5849 78.8494 20.5878 79.4061C19.5907 79.9628 18.4604 80.2362 17.3191 80.1968C16.1778 80.1573 15.069 79.8065 14.1127 79.1823C13.1565 78.5581 12.3891 77.6843 11.8937 76.6554L11.8926 76.6532Z" fill="black"/>
<path d="M49.8825 92.5291C48.7511 92.2711 47.7137 91.7037 46.886 90.8904C46.0583 90.077 45.4729 89.0496 45.1952 87.9229C44.9174 86.7962 44.9583 85.6145 45.3131 84.5096C45.6679 83.4048 46.3228 82.4202 47.2046 81.6659C47.2198 81.6529 47.2361 81.6388 47.2524 81.6269C49.0163 80.118 50.2486 78.0822 50.7675 75.8198C51.2864 73.5573 51.0644 71.1879 50.1342 69.0612C50.1212 69.033 50.1082 69.0048 50.0962 68.9755C49.6344 67.9215 49.4721 66.7606 49.6269 65.6203C49.7817 64.48 50.2478 63.4045 50.9739 62.5117C51.7 61.619 52.6581 60.9436 53.7429 60.5598C54.8278 60.1759 55.9974 60.0985 57.1234 60.3359C58.2494 60.5733 59.2882 61.1164 60.1257 61.9055C60.9632 62.6947 61.5671 63.6994 61.871 64.8093C62.1749 65.9192 62.167 67.0914 61.8483 68.1971C61.5296 69.3028 60.9123 70.2993 60.0643 71.0772V71.0772C59.9384 71.1781 59.8158 71.2823 59.6943 71.3897C59.6919 71.3928 59.689 71.3954 59.6856 71.3973C58.0014 72.8957 56.8272 74.8827 56.3269 77.0808C55.8266 79.2788 56.0252 81.5783 56.895 83.658C56.9579 83.8078 57.0241 83.9542 57.0924 84.1007C57.5154 85.1613 57.6404 86.3174 57.4539 87.4439C57.2674 88.5704 56.7764 89.6245 56.0341 90.4921C55.2918 91.3598 54.3265 92.008 53.2424 92.3666C52.1583 92.7253 50.9969 92.7807 49.8836 92.527L49.8825 92.5291Z" fill="black"/>
<path d="M85.9756 72.7272C85.0682 73.4504 83.9778 73.9073 82.8259 74.0469C81.6741 74.1865 80.5061 74.0034 79.4522 73.518C78.3983 73.0326 77.5 72.264 76.8575 71.2978C76.2149 70.3317 75.8534 69.206 75.8133 68.0464C75.8122 68.0262 75.8122 68.0059 75.8133 67.9857C75.734 65.6651 74.9107 63.4315 73.4649 61.6145C72.0192 59.7976 70.0276 58.4936 67.7841 57.895C67.7533 57.8887 67.7229 57.8807 67.693 57.8711C66.5809 57.5751 65.5719 56.9782 64.7768 56.1462C63.9818 55.3142 63.4314 54.2792 63.1861 53.1548C62.9408 52.0304 63.0102 50.8602 63.3865 49.7726C63.7628 48.6851 64.4316 47.7223 65.3193 46.99C66.2071 46.2577 67.2795 45.7842 68.4188 45.6215C69.558 45.4588 70.7201 45.6132 71.7773 46.0678C72.8345 46.5224 73.746 47.2596 74.4117 48.1983C75.0774 49.1371 75.4715 50.2411 75.5507 51.3892C75.5507 51.3892 75.5507 51.3892 75.5507 51.3892C75.5507 51.5498 75.5507 51.7147 75.5637 51.8731C75.5648 51.877 75.5648 51.8812 75.5637 51.8851C75.6854 54.1355 76.5066 56.2918 77.9128 58.0531C79.3189 59.8144 81.2397 61.0928 83.4073 61.7099C83.5636 61.7533 83.7198 61.7946 83.8771 61.8304C84.9704 62.1606 85.9526 62.7835 86.7174 63.6317C87.4821 64.48 88.0003 65.5212 88.2159 66.6428C88.4314 67.7644 88.3361 68.9235 87.9403 69.9948C87.5445 71.0661 86.8632 72.0088 85.9701 72.7207L85.9756 72.7272Z" fill="black"/>
</svg>
